<svg version="1.1" viewBox="0.0 0.0 960.0 720.0" fill="none" stroke="none" stroke-linecap="square" stroke-miterlimit="10" xmlns:xlink="http://www.w3.org/1999/xlink" xmlns="http://www.w3.org/2000/svg"><clipPath id="p.0"><path d="m0 0l960.0 0l0 720.0l-960.0 0l0 -720.0z" clip-rule="nonzero"/></clipPath><g clip-path="url(#p.0)"><path fill="#000000" fill-opacity="0.0" d="m0 0l960.0 0l0 720.0l-960.0 0z" fill-rule="evenodd"/><path fill="#274e13" d="m467.39142 305.8869c32.530304 0 58.858154 13.012054 78.98358 39.036133c20.212158 26.024078 30.318237 64.5397 30.318237 115.546875c0 52.568665 -10.800049 92.86255 -32.400208 120.881836c-21.600098 27.932495 -48.535187 41.898743 -80.80524 41.898743c-33.05078 0 -58.81479 -14.183105 -77.29199 -42.549316c-18.477203 -28.366272 -27.71582 -67.40234 -27.71582 -117.10837c0 -51.00717 9.759094 -90.043304 29.277283 -117.10834c19.518188 -27.065033 46.062897 -40.597565 79.634155 -40.597565zm-11.710907 -58.163803c-52.56894 0 -94.81497 18.824112 -126.73804 56.472244c-31.836304 37.56143 -47.754456 90.69391 -47.754456 159.39746c0 66.88187 15.874786 119.84085 47.62433 158.87698c31.749573 39.036133 73.64862 58.5542 125.69708 58.5542c68.70401 0 113.85605 -28.366272 135.45615 -85.098755c5.725342 24.462646 14.183228 49.705994 25.373657 75.73004l69.87506 0c-15.354309 -37.734863 -32.139954 -106.8288 -50.356873 -207.28174c15.354248 -80.934875 32.139893 -150.02881 50.356873 -207.28177l-71.826904 0c-11.97113 37.734924 -18.867554 61.156586 -20.68927 70.265015c-17.696472 -26.80481 -36.82428 -46.75659 -57.383423 -59.855377c-20.559143 -13.185516 -47.10388 -19.778305 -79.634186 -19.778305z" fill-rule="evenodd"/><path stroke="#274e13" stroke-width="1.0" stroke-linejoin="round" stroke-linecap="butt" d="m467.39142 305.8869c32.530304 0 58.858154 13.012054 78.98358 39.036133c20.212158 26.024078 30.318237 64.5397 30.318237 115.546875c0 52.568665 -10.800049 92.86255 -32.400208 120.881836c-21.600098 27.932495 -48.535187 41.898743 -80.80524 41.898743c-33.05078 0 -58.81479 -14.183105 -77.29199 -42.549316c-18.477203 -28.366272 -27.71582 -67.40234 -27.71582 -117.10837c0 -51.00717 9.759094 -90.043304 29.277283 -117.10834c19.518188 -27.065033 46.062897 -40.597565 79.634155 -40.597565zm-11.710907 -58.163803c-52.56894 0 -94.81497 18.824112 -126.73804 56.472244c-31.836304 37.56143 -47.754456 90.69391 -47.754456 159.39746c0 66.88187 15.874786 119.84085 47.62433 158.87698c31.749573 39.036133 73.64862 58.5542 125.69708 58.5542c68.70401 0 113.85605 -28.366272 135.45615 -85.098755c5.725342 24.462646 14.183228 49.705994 25.373657 75.73004l69.87506 0c-15.354309 -37.734863 -32.139954 -106.8288 -50.356873 -207.28174c15.354248 -80.934875 32.139893 -150.02881 50.356873 -207.28177l-71.826904 0c-11.97113 37.734924 -18.867554 61.156586 -20.68927 70.265015c-17.696472 -26.80481 -36.82428 -46.75659 -57.383423 -59.855377c-20.559143 -13.185516 -47.10388 -19.778305 -79.634186 -19.778305z" fill-rule="evenodd"/><path fill="#85200c" d="m456.52145 423.38956c-22.994751 -126.23361 183.33206 -105.84515 77.66928 134.52756c-261.00128 -28.682434 -175.49341 -217.55905 -77.66928 -134.52756z" fill-rule="evenodd"/><path stroke="#85200c" stroke-width="1.0" stroke-linejoin="round" stroke-linecap="butt" d="m456.52145 423.38956c-22.994751 -126.23361 183.33206 -105.84515 77.66928 134.52756c-261.00128 -28.682434 -175.49341 -217.55905 -77.66928 -134.52756z" fill-rule="evenodd"/><path fill="#000000" fill-opacity="0.0" d="m281.1916 63.240818l74.80316 129.60631" fill-rule="evenodd"/><path stroke="#85200c" stroke-width="24.0" stroke-linejoin="round" stroke-linecap="butt" d="m281.1916 63.240818l74.80316 129.60631" fill-rule="evenodd"/><path fill="#000000" fill-opacity="0.0" d="m482.9427 38.970634l0 142.74014" fill-rule="evenodd"/><path stroke="#85200c" stroke-width="24.0" stroke-linejoin="round" stroke-linecap="butt" d="m482.9427 38.970634l0 142.74014" fill-rule="evenodd"/><path fill="#000000" fill-opacity="0.0" d="m684.9134 63.08395l-75.02362 129.92125" fill-rule="evenodd"/><path stroke="#85200c" stroke-width="24.0" stroke-linejoin="round" stroke-linecap="butt" d="m684.9134 63.08395l-75.02362 129.92125" fill-rule="evenodd"/></g></svg>